<svg xmlns="http://www.w3.org/2000/svg" viewBox="0 0 295 100">
  <title>JQL: JASON Query Language | DerianAndre</title>
  <style>
    .braket { fill: #E58E03 }
    .JQL { fill: #10151E; }
    @media (prefers-color-scheme: dark) {
      .JQL { fill: #EEE; }
    }
  </style>
  <g class="JQL">
    <path d="M38.39,80.14h9.82c6.46,0,9.55-3.9,9.55-10.23V2.5h19V73.28c0,17.49-11.57,24.22-26.11,24.22H38.39Z" />
    <path d="M91.63,49.79c0-28,20.44-49.79,49.93-49.79s49.93,21.81,49.93,49.79a50.72,50.72,0,0,1-8.78,28.81L192,87l-11.8,13-9.87-9a51.08,51.08,0,0,1-28.81,8.64C112.07,99.59,91.63,78.05,91.63,49.79Zm20.16,0c0,18.39,12.49,31.69,29.77,31.69A29.39,29.39,0,0,0,156,77.91l-8.91-8.09,11.52-13,9.33,8.5a35.29,35.29,0,0,0,3.43-15.5c0-18.1-12.48-31.68-29.77-31.68S111.79,31.69,111.79,49.79Z" />
    <path d="M206.53,2.5h19.13V80.26h31V97.5H206.53Z" />
  </g>
  <g class="braket">
    <path d="M22.65,62.42V75.71c0,4.87,2.2,8,8.41,8V97.5c-16.63,0-24.18-8.22-24.18-22.08V65.48c0-6.78-4.3-7.93-6.88-7.93V42.45c2.58,0,6.88-1.15,6.88-7.93V24.58C6.88,10.72,14.43,2.5,31.06,2.5V16.26c-6.21,0-8.41,3.16-8.41,8V37.57c0,8.7-6.31,12-8.22,12.43C16.34,50.38,22.65,53.73,22.65,62.42Z" />
    <path d="M272.35,37.57V24.29c0-4.87-2.2-8-8.41-8V2.5c16.63,0,24.18,8.22,24.18,22.08v9.94c0,6.78,4.3,7.93,6.88,7.93v15.1c-2.58,0-6.88,1.15-6.88,7.93v9.94c0,13.86-7.55,22.08-24.18,22.08V83.74c6.21,0,8.41-3.16,8.41-8V62.42c0-8.69,6.31-12,8.22-12.42C278.66,49.62,272.35,46.27,272.35,37.57Z" />
  </g>
</svg>